<svg xmlns="http://www.w3.org/2000/svg" xmlns:xlink="http://www.w3.org/1999/xlink" aria-hidden="true" style="position: absolute; width: 0; height: 0; overflow: hidden;" version="1.1">
  <defs>

    <!-- full: 아이콘 + "ProjectFlow" 텍스트 -->
    <symbol id="full" viewBox="0 0 400 115">
      <g style="fill: currentColor">
        <!-- 아이콘 (원본 503x496 → 115x115 비율로 축소) -->
        <g transform="translate(0, 0) scale(0.2298)">
          <g transform="translate(0,496) scale(0.1,-0.1)">
            <path d="M2160 3929 c-157 -93 -382 -226 -500 -296 -412 -242 -695 -415 -715
            -434 -20 -19 -20 -33 -20 -923 0 -1031 -11 -918 95 -980 30 -18 145 -86 255
            -151 236 -138 507 -299 805 -475 355 -210 373 -220 405 -220 20 0 74 26 155
            74 69 40 186 109 260 152 l135 80 3 82 c2 45 0 82 -3 82 -6 0 -330 -189 -460
            -269 -33 -21 -68 -40 -78 -44 -17 -6 -70 22 -312 168 -38 23 -149 88 -245 145
            -96 57 -263 155 -370 219 -107 64 -207 123 -222 131 -14 8 -83 48 -152 89
            l-126 74 0 841 1 841 202 120 c111 65 256 151 322 191 66 39 199 118 295 174
            96 57 269 159 383 227 115 67 211 123 213 123 2 0 25 -13 51 -29 27 -15 159
            -94 296 -175 312 -184 699 -414 887 -526 80 -47 153 -89 163 -93 16 -6 17 -42
            17 -572 l0 -565 75 0 75 0 -2 596 -3 596 -26 22 c-14 12 -115 75 -225 140
            -109 65 -257 153 -329 196 -71 43 -229 136 -350 207 -121 71 -304 180 -408
            241 -154 92 -194 112 -225 111 -29 -1 -97 -37 -322 -170z"/>
            <path d="M2364 3539 c-595 -45 -1084 -480 -1200 -1067 -13 -62 -17 -136 -17
            -257 0 -147 3 -185 25 -281 88 -377 330 -674 704 -862 198 -99 388 -145 609
            -146 200 -1 296 17 488 91 62 24 67 28 67 56 0 33 1 33 -96 -7 -34 -14 -106
            -38 -160 -53 -91 -25 -114 -28 -279 -28 -172 0 -328 17 -308 35 4 3 44 15 88
            25 306 69 615 262 788 491 156 207 226 425 214 667 -6 130 -29 215 -88 325
            -21 41 -39 76 -39 78 0 9 89 -41 175 -100 168 -114 321 -291 392 -453 25 -58
            30 -63 59 -63 l32 0 8 88 c15 191 -10 417 -66 582 -34 98 -113 247 -182 341
            -216 297 -593 511 -943 534 -44 3 -100 7 -125 9 -25 2 -90 0 -146 -5z m380
            -73 c138 -31 356 -112 356 -131 0 -20 -57 -118 -84 -144 -42 -41 -119 -77
            -190 -90 -33 -6 -149 -11 -257 -11 -213 0 -285 -10 -403 -54 -272 -103 -477
            -348 -525 -631 -18 -104 -19 -128 -10 -220 11 -119 31 -189 80 -288 64 -129
            161 -236 285 -313 79 -49 151 -77 269 -103 l80 -18 -36 -15 c-110 -47 -342
            -70 -490 -49 -214 31 -415 137 -484 255 -39 67 -80 175 -103 271 -100 421 15
            853 310 1162 202 211 423 327 738 389 88 17 372 11 464 -10z m548 -253 c81
            -64 153 -137 223 -223 52 -64 64 -82 131 -205 43 -79 89 -222 108 -332 21
            -120 32 -328 18 -337 -6 -3 -26 22 -46 58 -114 204 -300 367 -559 491 -214
            103 -369 140 -582 140 -159 0 -235 -16 -345 -71 -121 -59 -223 -160 -264 -258
            -19 -45 -26 -47 -16 -3 11 50 84 188 124 234 55 63 174 138 269 169 160 51
            403 43 605 -21 80 -25 103 -26 55 -2 -89 46 -319 97 -438 97 -69 0 -201 -22
            -261 -43 -70 -25 -157 -74 -202 -112 -107 -93 -188 -242 -212 -392 -39 -240
            90 -501 306 -621 l59 -33 -40 6 c-22 3 -74 22 -115 42 -139 67 -252 210 -295
            373 -19 72 -19 249 0 320 18 66 18 77 5 64 -21 -21 -50 -169 -50 -255 0 -174
            58 -318 175 -434 173 -173 438 -213 689 -105 106 45 218 146 266 240 24 45 21
            6 -4 -57 -59 -151 -188 -294 -351 -388 -46 -27 -56 -29 -155 -29 -267 0 -500
            147 -629 396 -196 379 -20 859 381 1042 131 60 177 67 468 75 l265 7 65 31
            c90 42 143 92 181 168 l32 65 36 -22 c20 -12 66 -45 103 -75z m-522 -478 c80
            -13 183 -40 241 -63 14 -6 40 -28 56 -49 148 -187 198 -383 158 -612 -66 -377
            -353 -693 -787 -865 -97 -38 -270 -77 -352 -79 -68 -2 -77 1 -176 51 -96 48
            -179 102 -138 89 44 -15 232 -28 303 -22 407 33 752 243 908 552 98 192 96
            447 -4 646 -82 162 -179 266 -314 335 l-60 31 40 0 c22 1 78 -6 125 -14z
            m-120 -72 c288 -142 349 -516 121 -744 -87 -87 -186 -132 -301 -137 -199 -10
            -362 88 -449 268 -32 68 -36 85 -39 175 -3 83 0 111 18 165 92 275 391 401
            650 273z m350 -748 c-15 -78 -77 -210 -133 -282 -154 -199 -388 -339 -668
            -398 -143 -31 -417 -15 -521 28 -35 15 -172 137 -188 168 -9 15 0 14 57 -12
            38 -17 113 -41 168 -55 179 -43 433 -30 614 33 371 128 600 358 658 661 l18
            97 3 -90 c2 -49 -2 -117 -8 -150z"/>
            <path d="M2180 2452 c0 -36 28 -47 133 -52 108 -6 127 -16 127 -70 0 -51 -21
            -64 -111 -71 -81 -6 -84 -7 -116 -44 -33 -38 -33 -40 -33 -137 0 -90 2 -98 19
            -98 37 0 51 27 51 96 0 56 4 68 25 89 20 21 34 25 86 25 77 0 121 26 144 84
            22 53 12 105 -30 153 l-33 38 -131 3 c-124 3 -131 3 -131 -16z"/>
            <path d="M2554 2460 c-29 -11 -39 -29 -25 -43 6 -6 11 -19 11 -29 0 -22 -1
            -22 43 -3 20 8 58 15 85 15 38 0 53 5 70 23 39 41 30 47 -70 46 -51 0 -103 -4
            -114 -9z"/>
            <path d="M2519 2225 c-13 -19 -41 -42 -62 -51 l-38 -17 3 -91 c3 -85 4 -91 23
            -88 37 6 49 29 53 102 5 90 26 110 113 110 48 0 60 4 73 22 30 42 22 48 -63
            48 -78 0 -78 0 -102 -35z"/>
            <path d="M3559 1891 c-25 -26 -29 -37 -29 -85 l0 -56 -70 0 c-111 0 -137 -21
            -142 -115 l-3 -50 -88 -5 c-137 -8 -127 34 -127 -502 l0 -446 31 -26 31 -26
            303 0 303 0 31 26 c28 23 31 31 31 85 l0 59 100 0 c150 0 180 21 180 124 l0
            56 70 0 c81 0 120 16 138 55 16 35 17 853 1 888 -20 45 -41 47 -395 47 l-336
            0 -29 -29z m711 -21 c19 -19 20 -33 20 -440 0 -410 -1 -421 -20 -440 -18 -18
            -31 -20 -88 -18 l-67 3 -3 122 -3 122 53 3 c39 2 53 7 53 18 0 11 -14 16 -52
            18 l-53 3 0 35 0 34 50 0 c43 0 50 3 50 20 0 17 -7 20 -50 20 l-50 0 0 34 c0
            34 1 35 47 38 35 2 49 7 51 20 3 14 -6 17 -45 20 l-48 3 -3 77 -3 78 67 71 67
            71 -22 21 -22 22 -51 -54 -50 -54 -28 16 c-24 15 -62 17 -264 17 l-236 0 0 44
            c0 27 7 52 18 65 16 20 26 21 297 24 154 1 299 3 323 5 31 1 47 -3 62 -18z
            m-216 -176 c14 -14 16 -68 16 -444 l0 -430 -24 -15 c-18 -12 -46 -15 -117 -13
            l-94 3 0 120 0 120 73 3 c63 3 72 5 72 22 0 17 -9 19 -72 22 l-73 3 0 30 0 30
            73 3 c63 2 73 5 70 20 -3 13 -18 18 -73 22 -70 5 -70 5 -70 35 l0 30 73 3 c63
            3 72 5 72 22 0 17 -9 19 -72 22 l-73 3 -3 53 c-4 63 2 74 90 167 49 53 60 70
            52 83 -18 28 -31 24 -85 -33 l-53 -55 -29 30 -29 30 -209 0 -209 0 0 47 c0 86
            -13 83 356 83 280 0 325 -2 338 -16z m-283 -164 c18 -10 19 -26 19 -442 0
            -387 -2 -433 -17 -450 -15 -17 -38 -18 -309 -18 -253 0 -295 2 -308 16 -14 14
            -16 68 -16 444 0 376 2 430 16 444 13 14 55 16 305 16 181 0 298 -4 310 -10z"/>
            <path d="M3524 1370 l-88 -90 -37 36 c-39 38 -63 40 -76 8 -6 -17 91 -124 113
            -124 15 0 214 210 214 225 0 12 -20 35 -31 35 -3 0 -46 -41 -95 -90z"/>
            <path d="M3224 1106 c-12 -31 0 -51 31 -51 27 0 30 3 30 30 0 25 -4 30 -28 33
            -17 2 -29 -2 -33 -12z"/>
            <path d="M3345 1100 c-16 -25 13 -30 186 -30 167 0 180 1 177 18 -3 15 -21 17
            -180 20 -112 1 -179 -1 -183 -8z"/>
            <path d="M3222 978 c2 -27 7 -33 27 -33 28 0 47 25 38 49 -4 10 -18 16 -37 16
            -29 0 -31 -2 -28 -32z"/>
            <path d="M3351 991 c-37 -24 5 -31 180 -31 146 0 179 3 179 14 0 8 -7 17 -16
            20 -24 9 -327 7 -343 -3z"/>
            <path d="M3222 868 c2 -27 7 -33 27 -33 28 0 47 25 38 49 -4 10 -18 16 -37 16
            -29 0 -31 -2 -28 -32z"/>
            <path d="M3348 879 c-6 -4 -7 -12 -4 -18 5 -7 66 -11 187 -11 167 0 180 1 177
            18 -3 15 -20 17 -176 17 -95 1 -177 -2 -184 -6z"/>
            <path d="M3222 758 c3 -29 6 -33 33 -33 27 0 30 3 30 30 0 27 -4 30 -33 33
            -32 3 -33 2 -30 -30z"/>
            <path d="M3344 759 c-12 -21 20 -29 116 -29 96 0 128 8 116 29 -5 7 -47 11
            -116 11 -69 0 -111 -4 -116 -11z"/>
          </g>
        </g>
        <!-- "ProjectFlow" 텍스트 (아이콘 오른쪽) -->
        <text x="125" y="72" font-family="Arial, sans-serif" font-size="36" font-weight="bold" fill="currentColor">ProjectFlow</text>
      </g>
    </symbol>

    <!-- signet: 아이콘만 (좁은 사이드바용) -->
    <symbol id="signet" viewBox="0 0 115 115">
      <g style="fill: currentColor">
        <g transform="scale(0.2298)">
          <g transform="translate(0,496) scale(0.1,-0.1)">
            <path d="M2160 3929 c-157 -93 -382 -226 -500 -296 -412 -242 -695 -415 -715
            -434 -20 -19 -20 -33 -20 -923 0 -1031 -11 -918 95 -980 30 -18 145 -86 255
            -151 236 -138 507 -299 805 -475 355 -210 373 -220 405 -220 20 0 74 26 155
            74 69 40 186 109 260 152 l135 80 3 82 c2 45 0 82 -3 82 -6 0 -330 -189 -460
            -269 -33 -21 -68 -40 -78 -44 -17 -6 -70 22 -312 168 -38 23 -149 88 -245 145
            -96 57 -263 155 -370 219 -107 64 -207 123 -222 131 -14 8 -83 48 -152 89
            l-126 74 0 841 1 841 202 120 c111 65 256 151 322 191 66 39 199 118 295 174
            96 57 269 159 383 227 115 67 211 123 213 123 2 0 25 -13 51 -29 27 -15 159
            -94 296 -175 312 -184 699 -414 887 -526 80 -47 153 -89 163 -93 16 -6 17 -42
            17 -572 l0 -565 75 0 75 0 -2 596 -3 596 -26 22 c-14 12 -115 75 -225 140
            -109 65 -257 153 -329 196 -71 43 -229 136 -350 207 -121 71 -304 180 -408
            241 -154 92 -194 112 -225 111 -29 -1 -97 -37 -322 -170z"/>
            <path d="M2364 3539 c-595 -45 -1084 -480 -1200 -1067 -13 -62 -17 -136 -17
            -257 0 -147 3 -185 25 -281 88 -377 330 -674 704 -862 198 -99 388 -145 609
            -146 200 -1 296 17 488 91 62 24 67 28 67 56 0 33 1 33 -96 -7 -34 -14 -106
            -38 -160 -53 -91 -25 -114 -28 -279 -28 -172 0 -328 17 -308 35 4 3 44 15 88
            25 306 69 615 262 788 491 156 207 226 425 214 667 -6 130 -29 215 -88 325
            -21 41 -39 76 -39 78 0 9 89 -41 175 -100 168 -114 321 -291 392 -453 25 -58
            30 -63 59 -63 l32 0 8 88 c15 191 -10 417 -66 582 -34 98 -113 247 -182 341
            -216 297 -593 511 -943 534 -44 3 -100 7 -125 9 -25 2 -90 0 -146 -5z m380
            -73 c138 -31 356 -112 356 -131 0 -20 -57 -118 -84 -144 -42 -41 -119 -77
            -190 -90 -33 -6 -149 -11 -257 -11 -213 0 -285 -10 -403 -54 -272 -103 -477
            -348 -525 -631 -18 -104 -19 -128 -10 -220 11 -119 31 -189 80 -288 64 -129
            161 -236 285 -313 79 -49 151 -77 269 -103 l80 -18 -36 -15 c-110 -47 -342
            -70 -490 -49 -214 31 -415 137 -484 255 -39 67 -80 175 -103 271 -100 421 15
            853 310 1162 202 211 423 327 738 389 88 17 372 11 464 -10z m548 -253 c81
            -64 153 -137 223 -223 52 -64 64 -82 131 -205 43 -79 89 -222 108 -332 21
            -120 32 -328 18 -337 -6 -3 -26 22 -46 58 -114 204 -300 367 -559 491 -214
            103 -369 140 -582 140 -159 0 -235 -16 -345 -71 -121 -59 -223 -160 -264 -258
            -19 -45 -26 -47 -16 -3 11 50 84 188 124 234 55 63 174 138 269 169 160 51
            403 43 605 -21 80 -25 103 -26 55 -2 -89 46 -319 97 -438 97 -69 0 -201 -22
            -261 -43 -70 -25 -157 -74 -202 -112 -107 -93 -188 -242 -212 -392 -39 -240
            90 -501 306 -621 l59 -33 -40 6 c-22 3 -74 22 -115 42 -139 67 -252 210 -295
            373 -19 72 -19 249 0 320 18 66 18 77 5 64 -21 -21 -50 -169 -50 -255 0 -174
            58 -318 175 -434 173 -173 438 -213 689 -105 106 45 218 146 266 240 24 45 21
            6 -4 -57 -59 -151 -188 -294 -351 -388 -46 -27 -56 -29 -155 -29 -267 0 -500
            147 -629 396 -196 379 -20 859 381 1042 131 60 177 67 468 75 l265 7 65 31
            c90 42 143 92 181 168 l32 65 36 -22 c20 -12 66 -45 103 -75z m-522 -478 c80
            -13 183 -40 241 -63 14 -6 40 -28 56 -49 148 -187 198 -383 158 -612 -66 -377
            -353 -693 -787 -865 -97 -38 -270 -77 -352 -79 -68 -2 -77 1 -176 51 -96 48
            -179 102 -138 89 44 -15 232 -28 303 -22 407 33 752 243 908 552 98 192 96
            447 -4 646 -82 162 -179 266 -314 335 l-60 31 40 0 c22 1 78 -6 125 -14z
            m-120 -72 c288 -142 349 -516 121 -744 -87 -87 -186 -132 -301 -137 -199 -10
            -362 88 -449 268 -32 68 -36 85 -39 175 -3 83 0 111 18 165 92 275 391 401
            650 273z m350 -748 c-15 -78 -77 -210 -133 -282 -154 -199 -388 -339 -668
            -398 -143 -31 -417 -15 -521 28 -35 15 -172 137 -188 168 -9 15 0 14 57 -12
            38 -17 113 -41 168 -55 179 -43 433 -30 614 33 371 128 600 358 658 661 l18
            97 3 -90 c2 -49 -2 -117 -8 -150z"/>
            <path d="M2180 2452 c0 -36 28 -47 133 -52 108 -6 127 -16 127 -70 0 -51 -21
            -64 -111 -71 -81 -6 -84 -7 -116 -44 -33 -38 -33 -40 -33 -137 0 -90 2 -98 19
            -98 37 0 51 27 51 96 0 56 4 68 25 89 20 21 34 25 86 25 77 0 121 26 144 84
            22 53 12 105 -30 153 l-33 38 -131 3 c-124 3 -131 3 -131 -16z"/>
            <path d="M2554 2460 c-29 -11 -39 -29 -25 -43 6 -6 11 -19 11 -29 0 -22 -1
            -22 43 -3 20 8 58 15 85 15 38 0 53 5 70 23 39 41 30 47 -70 46 -51 0 -103 -4
            -114 -9z"/>
            <path d="M2519 2225 c-13 -19 -41 -42 -62 -51 l-38 -17 3 -91 c3 -85 4 -91 23
            -88 37 6 49 29 53 102 5 90 26 110 113 110 48 0 60 4 73 22 30 42 22 48 -63
            48 -78 0 -78 0 -102 -35z"/>
            <path d="M3559 1891 c-25 -26 -29 -37 -29 -85 l0 -56 -70 0 c-111 0 -137 -21
            -142 -115 l-3 -50 -88 -5 c-137 -8 -127 34 -127 -502 l0 -446 31 -26 31 -26
            303 0 303 0 31 26 c28 23 31 31 31 85 l0 59 100 0 c150 0 180 21 180 124 l0
            56 70 0 c81 0 120 16 138 55 16 35 17 853 1 888 -20 45 -41 47 -395 47 l-336
            0 -29 -29z m711 -21 c19 -19 20 -33 20 -440 0 -410 -1 -421 -20 -440 -18 -18
            -31 -20 -88 -18 l-67 3 -3 122 -3 122 53 3 c39 2 53 7 53 18 0 11 -14 16 -52
            18 l-53 3 0 35 0 34 50 0 c43 0 50 3 50 20 0 17 -7 20 -50 20 l-50 0 0 34 c0
            34 1 35 47 38 35 2 49 7 51 20 3 14 -6 17 -45 20 l-48 3 -3 77 -3 78 67 71 67
            71 -22 21 -22 22 -51 -54 -50 -54 -28 16 c-24 15 -62 17 -264 17 l-236 0 0 44
            c0 27 7 52 18 65 16 20 26 21 297 24 154 1 299 3 323 5 31 1 47 -3 62 -18z
            m-216 -176 c14 -14 16 -68 16 -444 l0 -430 -24 -15 c-18 -12 -46 -15 -117 -13
            l-94 3 0 120 0 120 73 3 c63 3 72 5 72 22 0 17 -9 19 -72 22 l-73 3 0 30 0 30
            73 3 c63 2 73 5 70 20 -3 13 -18 18 -73 22 -70 5 -70 5 -70 35 l0 30 73 3 c63
            3 72 5 72 22 0 17 -9 19 -72 22 l-73 3 -3 53 c-4 63 2 74 90 167 49 53 60 70
            52 83 -18 28 -31 24 -85 -33 l-53 -55 -29 30 -29 30 -209 0 -209 0 0 47 c0 86
            -13 83 356 83 280 0 325 -2 338 -16z m-283 -164 c18 -10 19 -26 19 -442 0
            -387 -2 -433 -17 -450 -15 -17 -38 -18 -309 -18 -253 0 -295 2 -308 16 -14 14
            -16 68 -16 444 0 376 2 430 16 444 13 14 55 16 305 16 181 0 298 -4 310 -10z"/>
            <path d="M3524 1370 l-88 -90 -37 36 c-39 38 -63 40 -76 8 -6 -17 91 -124 113
            -124 15 0 214 210 214 225 0 12 -20 35 -31 35 -3 0 -46 -41 -95 -90z"/>
            <path d="M3224 1106 c-12 -31 0 -51 31 -51 27 0 30 3 30 30 0 25 -4 30 -28 33
            -17 2 -29 -2 -33 -12z"/>
            <path d="M3345 1100 c-16 -25 13 -30 186 -30 167 0 180 1 177 18 -3 15 -21 17
            -180 20 -112 1 -179 -1 -183 -8z"/>
            <path d="M3222 978 c2 -27 7 -33 27 -33 28 0 47 25 38 49 -4 10 -18 16 -37 16
            -29 0 -31 -2 -28 -32z"/>
            <path d="M3351 991 c-37 -24 5 -31 180 -31 146 0 179 3 179 14 0 8 -7 17 -16
            20 -24 9 -327 7 -343 -3z"/>
            <path d="M3222 868 c2 -27 7 -33 27 -33 28 0 47 25 38 49 -4 10 -18 16 -37 16
            -29 0 -31 -2 -28 -32z"/>
            <path d="M3348 879 c-6 -4 -7 -12 -4 -18 5 -7 66 -11 187 -11 167 0 180 1 177
            18 -3 15 -20 17 -176 17 -95 1 -177 -2 -184 -6z"/>
            <path d="M3222 758 c3 -29 6 -33 33 -33 27 0 30 3 30 30 0 27 -4 30 -33 33
            -32 3 -33 2 -30 -30z"/>
            <path d="M3344 759 c-12 -21 20 -29 116 -29 96 0 128 8 116 29 -5 7 -47 11
            -116 11 -69 0 -111 -4 -116 -11z"/>
          </g>
        </g>
      </g>
    </symbol>

  </defs>
</svg>
